<?xml version="1.0" encoding="UTF-8" standalone="no"?>
<svg
   xmlns:dc="http://purl.org/dc/elements/1.1/"
   xmlns:cc="http://creativecommons.org/ns#"
   xmlns:rdf="http://www.w3.org/1999/02/22-rdf-syntax-ns#"
   xmlns:svg="http://www.w3.org/2000/svg"
   xmlns="http://www.w3.org/2000/svg"
   xmlns:xlink="http://www.w3.org/1999/xlink"
   xmlns:sodipodi="http://sodipodi.sourceforge.net/DTD/sodipodi-0.dtd"
   xmlns:inkscape="http://www.inkscape.org/namespaces/inkscape"
   id="271e5882-3c8d-41ed-8a0a-1cb2b4d0cbc1"
   data-name="Layer 1"
   width="1137.68"
   height="859.71"
   viewBox="0 0 1137.68 859.71"
   version="1.1"
   sodipodi:docname="about-img.svg"
   inkscape:version="0.92.4 5da689c313, 2019-01-14">
  <metadata
     id="metadata572">
    <rdf:RDF>
      <cc:Work
         rdf:about="">
        <dc:format>image/svg+xml</dc:format>
        <dc:type
           rdf:resource="http://purl.org/dc/dcmitype/StillImage" />
      </cc:Work>
    </rdf:RDF>
  </metadata>
  <sodipodi:namedview
     pagecolor="#ffffff"
     bordercolor="#666666"
     borderopacity="1"
     objecttolerance="10"
     gridtolerance="10"
     guidetolerance="10"
     inkscape:pageopacity="0"
     inkscape:pageshadow="2"
     inkscape:window-width="1280"
     inkscape:window-height="777"
     id="namedview570"
     showgrid="false"
     inkscape:zoom="0.65518095"
     inkscape:cx="516.86576"
     inkscape:cy="465.17761"
     inkscape:window-x="0"
     inkscape:window-y="0"
     inkscape:window-maximized="1"
     inkscape:current-layer="271e5882-3c8d-41ed-8a0a-1cb2b4d0cbc1"
     inkscape:snap-others="false"
     inkscape:object-nodes="false"
     inkscape:snap-nodes="false" />
  <defs
     id="defs13">
    <linearGradient
       inkscape:collect="always"
       id="linearGradient717">
      <stop
         style="stop-color:#000000;stop-opacity:1;"
         offset="0"
         id="stop713" />
      <stop
         style="stop-color:#000000;stop-opacity:0;"
         offset="1"
         id="stop715" />
    </linearGradient>
    <linearGradient
       inkscape:collect="always"
       id="linearGradient709">
      <stop
         style="stop-color:#67647e;stop-opacity:1;"
         offset="0"
         id="stop705" />
      <stop
         style="stop-color:#ff0000;stop-opacity:1"
         offset="1"
         id="stop707" />
    </linearGradient>
    <linearGradient
       id="1d1d90cb-e8d6-4c10-b901-192027040f7e"
       x1="512.79"
       y1="730.45"
       x2="512.79"
       y2="139.36"
       gradientUnits="userSpaceOnUse">
      <stop
         offset="0"
         stop-color="gray"
         stop-opacity="0.25"
         id="stop2" />
      <stop
         offset="0.54"
         stop-color="gray"
         stop-opacity="0.12"
         id="stop4" />
      <stop
         offset="1"
         stop-color="gray"
         stop-opacity="0.1"
         id="stop6" />
    </linearGradient>
    <linearGradient
       id="8425757a-56ab-41b8-890b-c9acfe5ccb1b"
       x1="703.39"
       y1="781.93"
       x2="703.39"
       y2="171.12"
       xlink:href="#1d1d90cb-e8d6-4c10-b901-192027040f7e" />
    <linearGradient
       id="422858ff-741c-491e-b83f-4f975ae951a6"
       x1="876.05"
       y1="827.31"
       x2="876.05"
       y2="239.74"
       xlink:href="#1d1d90cb-e8d6-4c10-b901-192027040f7e" />
    <linearGradient
       id="cb632b7f-b2f8-40b2-b1bc-4aa48a1a2180"
       x1="479.8"
       y1="818.68"
       x2="479.8"
       y2="229.88"
       gradientTransform="matrix(-1, 0, 0, 1, 828.87, 0)"
       xlink:href="#1d1d90cb-e8d6-4c10-b901-192027040f7e" />
    <linearGradient
       id="9b8149d4-8e0d-43dc-bd85-6bf0bb4ef8aa"
       x1="561.7"
       y1="875.44"
       x2="561.7"
       y2="737.82"
       xlink:href="#1d1d90cb-e8d6-4c10-b901-192027040f7e" />
    <linearGradient
       inkscape:collect="always"
       xlink:href="#linearGradient709"
       id="linearGradient711"
       x1="518.94061"
       y1="291.92795"
       x2="572.36096"
       y2="395.71606"
       gradientUnits="userSpaceOnUse" />
    <linearGradient
       inkscape:collect="always"
       xlink:href="#linearGradient717"
       id="linearGradient719"
       x1="553.1532"
       y1="499.80234"
       x2="418.83917"
       y2="637.16895"
       gradientUnits="userSpaceOnUse" />
  </defs>
  <title
     id="title15">team spirit</title>
  <path
     d="M43.44,426.65c18,70.15,56.11,130.79,116.34,160.18C285,647.92,567.23,616.41,777.9,580.25c109-18.71,204.74-70.3,274.33-143Z"
     transform="translate(-31.16 -20.14)"
     fill="#007bff"
     opacity="0.1"
     id="path17"
     style="fill:#00ff00" />
  <path
     d="M1148.21,96.46H1032.62c-5.5,0-10-4.1-10-9.11s4.49-9.11,10-9.11h20c-5.5,0-10-4.1-10-9.11s4.49-9.1,10-9.1h-14.27c-5.5,0-10-4.1-10-9.11s4.49-9.11,10-9.11h60.33c-13.39-5.68-29-9.71-47.06-11.82-164.51-19.27-223.25-6.53-244,6.58a242.11,242.11,0,0,1-84.55,33.79C621.57,89.45,431.75,112.42,259.7,63,174.19,38.45,110.64,80,72.54,149.31H1168.28c-1.43-20.16-5.71-38.78-13.57-55.07A10.48,10.48,0,0,1,1148.21,96.46Z"
     id="path19"
     fill="#007bff"
     opacity="0.1"
     transform="translate(-31.16 -20.14)"
     style="fill:#ff2a2a" />
  <path
     d="M 4.0988641,273.79079 A 423.94,423.94 0 0 0 10.981619,396.06957 L 1026.3293,410.05482 a 433.15,433.15 0 0 0 68.5799,-99.36024 z m 403.0007759,79.4436 -19.99617,0.39114 c 5.48895,-0.10737 10.07827,3.90365 10.17625,8.91269 0.098,5.00904 -4.32117,9.18627 -9.82012,9.29383 l -115.5179,2.25965 c -5.48895,0.10737 -10.07807,-3.89365 -10.17606,-8.90269 -0.098,-5.00904 4.32098,-9.19626 9.81992,-9.30383 l 19.99618,-0.39114 c -5.48895,0.10736 -10.07827,-3.90365 -10.17625,-8.91269 -0.098,-5.00904 4.32097,-9.19627 9.81992,-9.30383 l -14.28727,0.27947 c -5.48895,0.10737 -10.07808,-3.89364 -10.17606,-8.90268 -0.098,-5.00905 4.32097,-9.19627 9.81992,-9.30383 l 115.56789,-2.26063 c 5.49895,-0.10756 10.07828,3.90364 10.17626,8.91269 0.098,5.00904 -4.31117,9.18607 -9.82012,9.29383 l 14.23728,-0.2785 c 5.49895,-0.10756 10.07827,3.90365 10.17625,8.91269 0.098,5.00904 -4.29098,9.19568 -9.81992,9.30383 z"
     id="path21"
     style="opacity:0.1;fill:#000000"
     inkscape:connector-curvature="0" />
  <path
     d="M1168.33,149.94l-1108,24.57C46.83,206.1,37.9,241.81,33.78,278.83H1148.91a399,399,0,0,0,16.1-66.49C1168.33,190.58,1169.66,169.54,1168.33,149.94ZM258.75,230.45h-20c5.49,0,10,4.1,10,9.11s-4.5,9.11-10,9.11H123.17c-5.49,0-10-4.1-10-9.11s4.5-9.11,10-9.11h20c-5.49,0-10-4.09-10-9.1s4.5-9.11,10-9.11H128.88c-5.49,0-10-4.1-10-9.11s4.5-9.11,10-9.11H244.47c5.5,0,10,4.1,10,9.11s-4.49,9.11-10,9.11h14.28c5.49,0,10,4.1,10,9.11S264.24,230.45,258.75,230.45Z"
     id="path23"
     style="fill:#008000"
     fill="#007bff"
     opacity="0.1"
     transform="translate(-31.16 -20.14)" />
  <ellipse
     cx="664.34"
     cy="749.94"
     rx="75.23"
     ry="16.89"
     fill="#007bff"
     opacity="0.1"
     id="ellipse25" />
  <ellipse
     cx="839.15"
     cy="803.58"
     rx="135.72"
     ry="11.14"
     fill="#007bff"
     opacity="0.1"
     id="ellipse27" />
  <ellipse
     cx="294.22"
     cy="786.69"
     rx="135.72"
     ry="16.89"
     id="ellipse29"
     fill="#007bff"
     opacity="0.1" />
  <path
     d="M608.62,320.47C606.46,305.93,593.25,272,593.25,272h0c-.23-1-.49-2-.78-3C583.1,236.8,570.13,234,570.13,234L523.67,224a3.6,3.6,0,0,1,1,.93,6.45,6.45,0,0,0-.73.11,18.2,18.2,0,0,1-4.07-8.8c-.09-.48-.17-1-.23-1.49a32.68,32.68,0,0,0-2.66-49.13c-.49-.38-1-.75-1.49-1.1,2.19-2.33,2.26-5.57.62-8.81-3.66-7.6-11.62-12.41-19.8-14.76-6.25-1.79-13-2.37-19.22-.41-3.53,1.12-6.75,3-10.06,4.67-6.17,3.08-13,5.52-17.61,10.59-1.08,1.18-2.08,2.69-1.76,4.25.24,1.16,1.16,2.06,1.75,3.09,1.33,2.31,1,5.22.09,7.74s-2.24,4.86-2.87,7.44-.39,5.62,1.55,7.47a32.91,32.91,0,0,0,2.9,2,15.21,15.21,0,0,1,2.77,3.11q2.76,3.7,5.5,7.43a76.54,76.54,0,0,1,6.89,10.47c1.37,2.7,2.43,5.58,4.26,8a11.86,11.86,0,0,0,1.83,1.92l-.54-.21A8.33,8.33,0,0,0,477.9,221h0c.1,0,.19,0,.28,0a1.68,1.68,0,0,0,1.12-.46c0,.34,0,.68,0,1,.11,3.57.09,7.37-.16,10.94l-.43-.22a3.75,3.75,0,0,0-4,.42L431.94,267s-9.3,12.72-8,34.68l-7.5,32.93s-9.37,27.94-2.16,47.89,11.39,31.36,11.39,31.36,2.88,22.67,7.21,24.52,6.2,2.85,6.2,2.85l.86,5.42h0s.29.53.8,1.42c3.15,5.48,14.82,24.82,21.6,22.75a86.69,86.69,0,0,1,1.1,15.89l6.71,45.05s4.68,12.25,4.39,18.67S480,566,480,566a29.75,29.75,0,0,0-2.88,20.95c2.74,12,6.2,67.28,6.2,67.28l5,13.4-.14,15.71a15,15,0,0,1-3.1,7c-3.24,3.52-3,7.59-10.81,12.4s-12.76,6.63-12.76,13a16.72,16.72,0,0,1-.24,2.65c-.72,4.68-2.12,7.22,12.24,8.58,16.87,1.6,28.12-9.4,28.12-9.4s2.48-4.5,14.16-6.32c0,0,4-.21,4.21-3.74.08-1.22.06-3.55,0-6.12-.19-4.89-.66-10.6-1.28-10.88-.78-.35-2.14-5.27-2.61-7.05h3.25s3-22.67,0-37.35-.29-25.09-.29-25.09l-.58-38.77s-4-4.28-.86-11.84,0-44.9,0-44.9,1.16-13.4,4.47-16.54.16-19.63,0-20.49l5.9,19.79s2.59,39.34,8.08,46.46l1.58,17.82s11.24,16.4,9.08,25.23,2.31,40.77,2.31,40.77v32.65s-5.05,13.11,2,17.82l3-.12c-1,.93-1.77,2.33-2.94,3.54-1.35,1.39-2.12,6.68-2.55,11.23-.36,3.85-.48,7.16-.48,7.16s3,4.8,8.65,5.13S581,730.45,581,730.45s18.39,0,23.15-1l.28-.07a6.25,6.25,0,0,0,3.59-2.93,7.5,7.5,0,0,0,.86-5.39c-.59-2.81-2.82-5.89-7.76-8.51C588.83,706.07,587,700,587,700l-8.07-12.11,1.15,0s-.71-12.83,8.07-27.23l-.57-63.43s3.6-21.81-2.59-33.65c0,0-.51-12.54,3.63-16.39s-5.51-42.76-5.51-42.76-2-20.89-4.35-39.95l0,0c9.73,9.23,19.82-24,21.52-29.91l.25,0-.11-.43c.07-.28.11-.42.11-.42h0s-2.16-7.68-.58-6.12,5.48-4.28,5.48-4.28-.58-31.79,6.2-47.81S608.62,320.47,608.62,320.47Zm-29,20.23.05-.09c1,19.41-.19,60.83-.19,60.83s-1.34,5.31-2.77,11.56l-1-39.35h0l-1-37.07ZM455.51,327.32s4.9,61.29,0,70.13c-1.39,2.52-2.56,7-3.53,12.11-1.62-4.25-5.05-14.23-3.82-19.52,1.59-6.84-3.17-24.81-3.17-25.23s-.43-10,3-17.32S449.17,337,449.17,337,452.05,325,455.51,327.32Z"
     id="path35"
     fill="url(#1d1d90cb-e8d6-4c10-b901-192027040f7e)"
     transform="translate(-31.16 -20.14)"
     style="fill:#666666" />
  <path
     d="M467.45,465.36c-4.27,18.77-21.25-9.61-25.12-16.42-.5-.89-.78-1.41-.78-1.41l1.84-8.63,9.73-4a27.18,27.18,0,0,1,4.36,2.84C462.81,441.93,470.74,450.82,467.45,465.36Z"
     transform="translate(-31.16 -20.14)"
     fill="#d38884"
     id="path37" />
  <path
     d="M599.18,434.65s0,.14-.11.42c0,.12-.08.28-.13.45-1.67,5.86-11.57,38.85-21.13,29.69-10.46-10-5.38-33.12-5.38-33.12h.07l22-2.25,4.36,4.48s0,0,0,0Z"
     transform="translate(-31.16 -20.14)"
     fill="#d38884"
     id="path39" />
  <path
     d="M586.45,597l.56,63c-8.63,14.3-7.92,27-7.92,27l-28.44,1.12c-6.94-4.67-2-17.68-2-17.68V638s-4.39-31.69-2.27-40.47-8.91-25-8.91-25l-1.56-17.69c-5.38-7.07-7.93-46.12-7.93-46.12L522.21,489c.16.85,3.16,17.31,0,20.34s-4.39,16.41-4.39,16.41,3.11,37.08,0,44.57.84,11.75.84,11.75l.57,38.49s-2.69,10.33.28,24.9,0,37.08,0,37.08H489l.14-15.71-4.94-13.3s-3.4-54.9-6.09-66.79a29.84,29.84,0,0,1,2.82-20.8s-5.65-9.05-5.37-15.42S471.2,532,471.2,532l-6.58-44.71a86.86,86.86,0,0,0-3.26-25.47c-3.82-12.74-9.48-29.44-9.48-29.44l6.39.57,32.24,2.87s78.39-5.27,81.9-.89a14.71,14.71,0,0,1,1.48,4.57c3.52,15.81,8.17,65.34,8.17,65.34s9.48,38.63,5.41,42.45-3.57,16.26-3.57,16.26C590,575.3,586.45,597,586.45,597Z"
     transform="translate(-31.16 -20.14)"
     fill="#444053"
     id="path41"
     style="fill-opacity:1;fill:url(#linearGradient719)" />
  <path
     d="M520.18,706.43c-.22,3.51-4.13,3.72-4.13,3.72-11.46,1.8-13.9,6.26-13.9,6.26s-11,10.93-27.59,9.34c-14.1-1.36-12.73-3.87-12-8.52a17.62,17.62,0,0,0,.23-2.62c0-6.37,4.88-8.18,12.52-13s7.43-8.81,10.61-12.31,3.51-10.29,3.51-10.29c3.6-6.27,12.73,1,12.73,1,.43,2.22,14,1.91,14,1.91s1.8,7.22,2.73,7.64c.61.28,1.07,5.94,1.25,10.8C520.24,702.91,520.26,705.22,520.18,706.43Z"
     transform="translate(-31.16 -20.14)"
     fill="#b07473"
     id="path43" />
  <path
     d="M520.18,706.43c-.22,3.51-4.13,3.72-4.13,3.72-11.46,1.8-13.9,6.26-13.9,6.26s-11,10.93-27.59,9.34c-14.1-1.36-12.73-3.87-12-8.52,6.3,1.56,18.34,3.74,25.37-.08,9.77-5.3,16.78-9,16.78-9l15.44-7.77C520.24,702.91,520.26,705.22,520.18,706.43Z"
     transform="translate(-31.16 -20.14)"
     opacity="0.1"
     id="path45" />
  <path
     d="M606.55,725.32a6.1,6.1,0,0,1-3.52,2.91l-.27.07c-4.67,1-22.72,1-22.72,1s-18.25-14.11-23.77-14.43-8.49-5.1-8.49-5.1.11-3.28.46-7.1c.43-4.52,1.18-9.77,2.51-11.15,2.44-2.55,3-6,8.49-3.82,0,0,7.84-13.82,17.08-3.14l9.56,14.5s1.8,6,13.91,12.51c4.84,2.6,7,5.66,7.61,8.45A7.45,7.45,0,0,1,606.55,725.32Z"
     transform="translate(-31.16 -20.14)"
     fill="#b07473"
     id="path47" />
  <path
     d="M606.55,725.32c-1.08.91-2.27,1.89-3.52,2.91l-.27.07c-4.67,1-22.72,1-22.72,1s-18.25-14.11-23.77-14.43-8.49-5.1-8.49-5.1.11-3.28.46-7.1c5.62,1.68,14.13,4.65,16.41,7.85,3.5,4.87,14.13,11.67,14.13,11.67s19.82-1.91,28.62-2.17A7.45,7.45,0,0,1,606.55,725.32Z"
     transform="translate(-31.16 -20.14)"
     opacity="0.1"
     id="path49" />
  <path
     d="M529.42,231.53l-26.1,27.59s-31.63-2.33-26.11-11.67c2.81-4.76,3.25-14.72,3-23.38-.23-8.35-1.09-15.46-1.09-15.46s44.36-22.08,41-1.49a33.89,33.89,0,0,0-.12,11.75C521.89,229.27,529.42,231.53,529.42,231.53Z"
     transform="translate(-31.16 -20.14)"
     fill="#d38884"
     id="path51" />
  <path
     d="M520.08,207.12a33.89,33.89,0,0,0-.12,11.75,32.56,32.56,0,0,1-23.22,9.69c-6,0-12.49-4.93-17.34-7.78-.23-8.36-.28-12.17-.28-12.17S523.48,186.53,520.08,207.12Z"
     transform="translate(-31.16 -20.14)"
     opacity="0.1"
     id="path53" />
  <path
     d="M529.42,194.17a32.69,32.69,0,1,1-12.3-25.54A32.69,32.69,0,0,1,529.42,194.17Z"
     transform="translate(-31.16 -20.14)"
     fill="#d38884"
     id="path55" />
  <path
     d="M573.89,439.5c-8.14,19.37-60.5,19.77-60.5,19.77V438.15l-3.17-.21c1.37,6.05-1.92,20.8-1.92,20.8C466.92,464.58,456.83,441,456.83,441l1.44-8.07,32.24,2.87s78.39-5.27,81.9-.89A14.71,14.71,0,0,1,573.89,439.5Z"
     transform="translate(-31.16 -20.14)"
     opacity="0.1"
     id="path57" />
  <path
     d="M513.39,456.72V435.6l-3.17-.2c1.37,6-1.92,20.8-1.92,20.8-31.14,4.39-44.56-7.87-49.29-14.21a19.35,19.35,0,0,1-2.18-3.52l12.64-71.1,3-104.64L477,244.37l1.05-8.81v-.1l.11,0,3.22,1.38,19.27,8.33,21.89-16.53.32-.23,1.09-.83,1.81,1.45,4.5,3.61,14.43,93.19s25,71.75,29.68,100.71c.19,1.16.34,2.24.46,3.25C577.92,456.23,513.39,456.72,513.39,456.72Z"
     transform="translate(-31.16 -20.14)"
     fill="#007bff"
     id="path59"
     style="fill:#00ff00" />
  <circle
     cx="471.83"
     cy="227.09"
     r="1.86"
     fill="#67647e"
     id="circle61" />
  <circle
     cx="472.69"
     cy="244.07"
     r="1.86"
     id="circle63"
     fill="#67647e" />
  <circle
     cx="474.55"
     cy="271.56"
     r="1.86"
     fill="#67647e"
     id="circle65" />
  <circle
     cx="477.62"
     cy="301.17"
     r="1.86"
     fill="#67647e"
     id="circle67" />
  <circle
     cx="479.48"
     cy="328.97"
     r="1.86"
     fill="#67647e"
     id="circle69" />
  <circle
     cx="481.34"
     cy="358.58"
     r="1.86"
     fill="#67647e"
     id="circle71" />
  <circle
     cx="480.6"
     cy="387.87"
     r="1.86"
     fill="#67647e"
     id="circle73" />
  <path
     d="M479.29,377.71s-2.08,27.23-5.9,35.15S467.87,443,467.87,443L459,442a19.35,19.35,0,0,1-2.18-3.52l12.64-71.1,3-104.64L477,244.37l1.05-8.81.12-.05a3.58,3.58,0,0,1,3.16.05l.42.22q-.19.54-.36,1.11c-3.46,10.83-4.75,30.79-4.75,30.79s5,36.51,5.52,53.49S479.29,377.71,479.29,377.71Z"
     transform="translate(-31.16 -20.14)"
     opacity="0.1"
     id="path75" />
  <path
     d="M574.56,433.38s-21.37,8.06-28.16,1-6.09-40.19-6.09-40.19-6.5-61.13-10.61-71.17-2-82.5-2-82.5-2.76-9.37-5.17-11.82a2.62,2.62,0,0,0-.51-.41l.83.18,2.9.62,4.5,3.61,14.43,93.19s25,71.75,29.68,100.71Z"
     transform="translate(-31.16 -20.14)"
     opacity="0.1"
     id="path81" />
  <path
     d="M599.18,435.5l-.24,0c-2.69.35-26.43,3.22-26.53-1.72a14.47,14.47,0,0,1,.09-1.71l22-2.25,4.36,4.48s0,0,0,0c.08.29.14.54.2.74Z"
     transform="translate(-31.16 -20.14)"
     opacity="0.1"
     id="path83" />
  <path
     d="M576.4,266.07,592,274.21s13,33.66,15.08,48.09c0,0,9.63,38.66,3,54.56S604,424.32,604,424.32s-3.82,5.8-5.38,4.25.57,6.08.57,6.08-26.67,3.54-26.78-1.7,6.12-30.28,6.12-30.28,1.7-59.57-.71-68.91S576.4,266.07,576.4,266.07Z"
     transform="translate(-31.16 -20.14)"
     fill="#67647e"
     id="path85" />
  <path
     d="M529.85,329.52s-8.78,21.5-11.61,22.92.57,7.07.57,7.07S534.8,337.16,529.85,329.52Z"
     transform="translate(-31.16 -20.14)"
     opacity="0.1"
     id="path87" />
  <path
     d="M524.61,254.1c.1-.41-10.47,10.37-13.3,12S521.64,266,524.61,254.1Z"
     transform="translate(-31.16 -20.14)"
     opacity="0.1"
     id="path89" />
  <path
     d="M495.18,327.82s-16.13,10.43-14,14.56S495.18,327.82,495.18,327.82Z"
     transform="translate(-31.16 -20.14)"
     opacity="0.1"
     id="path91" />
  <path
     d="M524.47,480.07s13.73,8.83,35.09,11Z"
     transform="translate(-31.16 -20.14)"
     opacity="0.1"
     id="path93" />
  <path
     d="M491.5,501.3s12.73,16,18.54,16.41S491.5,501.3,491.5,501.3Z"
     transform="translate(-31.16 -20.14)"
     opacity="0.1"
     id="path95" />
  <path
     d="M509.33,564c-.57.28-7.22,14.43-14,14.86S509.33,564,509.33,564Z"
     transform="translate(-31.16 -20.14)"
     opacity="0.1"
     id="path97" />
  <path
     d="M568.33,595s12.62-2.83,15.43,6.22C583.76,601.19,582.91,598.36,568.33,595Z"
     transform="translate(-31.16 -20.14)"
     opacity="0.1"
     id="path99" />
  <path
     d="M559.84,646.76s15.29-3.12,18.54,1.13S559.84,646.76,559.84,646.76Z"
     transform="translate(-31.16 -20.14)"
     opacity="0.1"
     id="path101" />
  <path
     d="M516.59,654c0,.14-15.56,3.12-15,5.1s16.6,1.7,17.17-1.42A3,3,0,0,0,516.59,654Z"
     transform="translate(-31.16 -20.14)"
     opacity="0.1"
     id="path103" />
  <path
     d="M554.75,667.42s25.57-3.12,24,2.26S554.75,667.42,554.75,667.42Z"
     transform="translate(-31.16 -20.14)"
     opacity="0.1"
     id="path105" />
  <path
     d="M517.12,168.63a7.87,7.87,0,0,1-1.62,1.21c-4,2.33-5.1,5.92-7,10.06-1.77,3.79-3.72,7.8-7.29,9.95-4.61,2.78-10.68,1.76-15.47,4.18a12,12,0,0,0-6.4,11.83,34.12,34.12,0,0,0,1.36,5.42,38.65,38.65,0,0,1,1.46,11.77,2,2,0,0,1,0,.35,32.68,32.68,0,1,1,35-54.77Z"
     transform="translate(-31.16 -20.14)"
     opacity="0.1"
     id="path113" />
  <path
     d="M516.27,158.79c-3.59-7.54-11.4-12.32-19.43-14.65-6.13-1.77-12.79-2.35-18.87-.4-3.47,1.1-6.62,3-9.87,4.63-6.06,3.06-12.72,5.48-17.28,10.51-1.07,1.17-2,2.67-1.73,4.22.23,1.15,1.13,2,1.71,3.06,1.31,2.3,1,5.19.09,7.69s-2.2,4.82-2.82,7.39-.38,5.58,1.52,7.41c.85.81,1.94,1.32,2.86,2a15.05,15.05,0,0,1,2.71,3.08l5.4,7.38a74.85,74.85,0,0,1,6.76,10.39c1.34,2.68,2.38,5.54,4.18,7.93s4.6,4.31,7.58,4.05a1.47,1.47,0,0,0,1.2-.57,1.58,1.58,0,0,0,.15-.75A38.38,38.38,0,0,0,479,210.43a33.85,33.85,0,0,1-1.36-5.42,12.05,12.05,0,0,1,6.4-11.83c4.8-2.42,10.87-1.4,15.47-4.17,3.58-2.16,5.53-6.17,7.29-10,1.93-4.14,3-7.73,7-10.06S518.26,162.76,516.27,158.79Z"
     transform="translate(-31.16 -20.14)"
     fill="#585268"
     id="path115" />
  <path
     d="M501.63,693.06s5,6.37,3.7,10S501.63,693.06,501.63,693.06Z"
     transform="translate(-31.16 -20.14)"
     opacity="0.1"
     id="path117" />
  <path
     d="M569.28,709s1.11-8.54,5.56-8.62,4.67-.46,8.07.85,6.59,3.34,5.57,3.64-5.85-4.88-10.81-2.23A35.72,35.72,0,0,0,569.28,709Z"
     transform="translate(-31.16 -20.14)"
     opacity="0.1"
     id="path119" />
  <path
     d="M486.71,255.88l14-9.81s-20.48-12.1-22.92-10.4-4.12,17-4.12,17Z"
     transform="translate(-31.16 -20.14)"
     opacity="0.1"
     id="path121" />
  <path
     d="M486.65,255.25l14-10s-20.48-12.1-22.92-10.4-4.12,17.84-4.12,17.84Z"
     transform="translate(-31.16 -20.14)"
     fill="#e1e7ef"
     id="path123" />
  <path
     d="M486.65,255.25l14-10s-20.48-12.1-22.92-10.4-4.12,17.84-4.12,17.84Z"
     transform="translate(-31.16 -20.14)"
     fill="#007bff"
     id="path125" />
  <path
     d="M521.89,249.68l-17.45-6.46s22.22-24.34,25-10.84Z"
     transform="translate(-31.16 -20.14)"
     opacity="0.1"
     id="path129" />
  <path
     d="M521.89,248.83l-17.45-6.46s22.22-24.34,25-10.84Z"
     transform="translate(-31.16 -20.14)"
     fill="#e1e7ef"
     id="path131" />
  <path
     d="M521.89,248.83l-17.45-6.46s22.22-24.34,25-10.84Z"
     transform="translate(-31.16 -20.14)"
     fill="#007bff"
     id="path133" />
  <path
     d="M521.32,228.12a1,1,0,0,1,.72.16Z"
     transform="translate(-31.16 -20.14)"
     opacity="0.1"
     id="path135" />
  <g
     id="g703"
     style="fill-opacity:1;fill:url(#linearGradient711)">
    <path
       id="path127"
       transform="translate(-31.16 -20.14)"
       d="M480.05,234.93l-.42-.21a3.63,3.63,0,0,0-3.93.41l-42,34.07s-9.13,12.63-7.86,34.42l24.77,35.09s2.83-11.88,6.22-9.62c0,0,4.81,60.85,0,69.62s-6.93,41.6-6.93,41.6l16.27,1.84s1.7-22.22,5.52-30.14,5.9-35.15,5.9-35.15,3.44-39.56,2.87-56.54-5.52-53.49-5.52-53.49S476.33,245.43,480.05,234.93Z"
       fill="#67647e"
       style="fill-opacity:1;fill:url(#linearGradient711)" />
    <path
       id="path137"
       transform="translate(-31.16 -20.14)"
       d="M523,226.43l46.3,10s12.74,2.83,21.94,34.81-12.6,71.16-12.6,71.16l-4.81-4.09,2.41,93.39s-21.37,8.06-28.16,1S542,392.48,542,392.48s-6.51-61.12-10.62-71.17-2-82.49-2-82.49S525.6,225.87,523,226.43Z"
       fill="#67647e"
       style="fill-opacity:1;fill:url(#linearGradient711)" />
  </g>
  <path
     d="M565.36,285.94c-.65.6-1.41,28.86,1.42,50.37a274.5,274.5,0,0,0,8,38.77l-4.2-86.17S567.34,284.1,565.36,285.94Z"
     transform="translate(-31.16 -20.14)"
     opacity="0.1"
     id="path139" />
  <path
     d="M559.7,261.6c1.13.71,6.09,12.45,3.82,17.26S559.7,261.6,559.7,261.6Z"
     transform="translate(-31.16 -20.14)"
     opacity="0.1"
     id="path141" />
  <path
     d="M516,158.79a25.56,25.56,0,0,0-10.18-10.66,24.21,24.21,0,0,1,7.63,9c2,4,1.41,8-2.48,10.19s-5.1,5.92-7,10.06c-1.77,3.79-3.72,7.8-7.3,10-4.6,2.78-10.67,1.75-15.47,4.17a12.08,12.08,0,0,0-6.4,11.84,34,34,0,0,0,1.37,5.41,38.68,38.68,0,0,1,1.46,11.77,1.58,1.58,0,0,1-.16.75,1.43,1.43,0,0,1-1.19.57,6.89,6.89,0,0,1-3.49-.65,8.12,8.12,0,0,0,6,2.35,1.18,1.18,0,0,0,1.34-1.32,38.37,38.37,0,0,0-1.45-11.77,32.85,32.85,0,0,1-1.37-5.42,12.05,12.05,0,0,1,6.4-11.83c4.8-2.42,10.87-1.4,15.47-4.17,3.58-2.16,5.53-6.17,7.29-10,1.93-4.14,3-7.73,7-10.06S518,162.76,516,158.79Z"
     transform="translate(-31.16 -20.14)"
     opacity="0.1"
     id="path143" />
  <path
     d="M800.87,284.37c-13.78-.27-25.94-10-32.83-21.89a22,22,0,0,1-3.32-9.37,10.82,10.82,0,0,1,.38-2.24,23.24,23.24,0,0,0,1-3.43,6,6,0,0,0,0-1.4s0,0,0-.08c.33-2.53-1.16-5-3-6.73s-4.15-3-6.07-4.72c-5.92-5.2-7.72-13.54-7.83-21.48v-.42c.07-3.4.34-6.81.31-10.21a42.93,42.93,0,0,0-.25-5.78c-.57-4.81-2.4-9.71-6.18-12.78-9.86-8-26.44.33-36.65-7.23-2.48-1.85-4.49-4.58-7.5-5.3-2.27-.55-4.63.19-6.85.93-7.52,2.48-15.91,5.74-18.85,13-1.68,4.17-1.21,8.93-2.75,13.15-1,2.83-2.91,5.26-4.3,7.94a12.43,12.43,0,0,0-1.6,6.63,7.48,7.48,0,0,0,.49,3.53,9,9,0,0,0,2.45,3.51,11.65,11.65,0,0,1-1.46,2.34c-1.92,2.35-4.87,4-6.87,6.34-3.7,4.29-3.56,10.12-1.74,15.16s5.11,9.63,7.38,14.54c1,2.13,1.76,4.51.75,6.63-.71,1.47-2.18,2.59-3.32,3.86a12.13,12.13,0,0,0-3,6.7c-22.51,5.14-22.53,23.23-22.53,23.23h0l-12.16,30.58s-1.95,5.15-4.24,11.95l-14.39-2.58,10,16.74c-1.89,6.82-3.23,13.14-2.79,16.32,0,0-4.47,21,3.48,24.67l17.54,7.89a10.39,10.39,0,0,0,2.43,1.09l.71.32a1.88,1.88,0,0,0,1.64,0H639l.19,0a2.36,2.36,0,0,0,1-.15,2,2,0,0,0,.88-.95.3.3,0,0,1,0-.1l5.25-1.52,4.45,5.27c2,1.41,4,2.63,5.89,3.73l-6.89,68.42s-1.11,91-4.47,111.74c-1.24,7.68-1.25,12.92-.78,16.48l-.13.22c.83,5.85,3,7,3,7l0-.08a.65.65,0,0,0,.13.08,58.91,58.91,0,0,1,3.6-7.72c0,.49,0,1,0,1.5-.07,7.72-.31,18.53-1.11,25.56-1.36,12,3.48,51.55,3.48,51.55l1.67,36a33.28,33.28,0,0,1-4.1,17.54c-4,7.19-9.11,17.31-9.48,21.8a4.5,4.5,0,0,0,0,.73h0L633,773.2s-3.35,5.18,4.22,7.27c4.07,1.13,11.09,0,16.73-1.33a11.18,11.18,0,0,0,8.67-10.88,38.5,38.5,0,0,1,7.08-13.59l1.41,8.29,9.44,2.34,1.21-22.72a10,10,0,0,0,.65-4v0c1.86-16.16-4.38-14.71-4.38-14.71a.87.87,0,0,1,.3.56l-.3-.55h0c-3.83-7.56-2-20-2-20s5-36,6.71-45.51c1.23-6.72.72-28.72.31-41,0-.51,0-1-.05-1.49,14.64-.19,32.58-.68,45.17-1.9l0,1.48-2.32,85.05a46.69,46.69,0,0,1-3.26,15.82c0,.1-.07.19-.11.29a69,69,0,0,0-4.61,22.29l-1.08,27,0,.75h0c-1.88.72-4.85,2.81-4.93,8.87-.13,8.88,15.52,5.92,15.52,5.92,15.64,0,15.77-16.28,15.77-16.28s.49-14.93,1.24-24.92-2.36-7.79-2.36-7.79l-.24,28.42c0,.07,0,.14,0,.22V736.19l.24-3.61v-.1h0l0-.77L744,702.4s14.41-48.84,16.64-58.21c1.59-6.66.93-26.72.41-37.81,0-.51,0-1-.08-1.47,4.47-.4,8.42-.44,10-.44h.73s-.74-78.44-2.61-108-4.84-56.61-12.29-64.75c-4.5-4.92-10.77-20.11-15-31.36a156.88,156.88,0,0,0,27.57,9c23.59,4.94,20.36-15.54,20.36-15.54l-2.39-38.73h.16a197.48,197.48,0,0,0-2.6-30.28c-1.25-7.68-3.16-15.62-6.08-22,2.56-1,5.09-2.07,7.57-3.17,6.41-2.83,13.63-6.84,14.55-13.75h-.31A8.92,8.92,0,0,0,800.87,284.37Zm-146.23,56h0c.05,4-.1,10.94-.34,18.61l-7.49-10,7.51-12.18ZM755,360.68Zm3.12,15.13-12.48-4a56,56,0,0,1,7.71-9.54l1.08-1-.39.08.6-.55.36-.08-.57.55.68-.14a21.29,21.29,0,0,0,4.25,8.55C763.84,374.57,758.13,375.81,758.13,375.81Z"
     transform="translate(-31.16 -20.14)"
     fill="url(#8425757a-56ab-41b8-890b-c9acfe5ccb1b)"
     id="path145" />
  <polygon
     points="651.15 715.66 649.69 743.34 640.38 741.01 638.42 729.5 651.15 715.66"
     fill="#a27772"
     id="polygon147" />
  <polygon
     points="651.15 715.66 649.69 743.34 640.38 741.01 638.42 729.5 651.15 715.66"
     opacity="0.1"
     id="polygon149" />
  <path
     d="M716.48,767.15l14.2,2.94,10.53-9.3V734.58l.24-3.58v-.11h0l0-.76L743.41,701s14.21-48.49,16.42-57.8c1.56-6.6.91-26.52.39-37.53-.21-4.51-.39-7.53-.39-7.53l-31.35-7.59-.66,24.1-2.29,84.44a46.79,46.79,0,0,1-3.21,15.71l-.11.29a68.72,68.72,0,0,0-4.55,22.12l-1.06,26.85,0,.74Z"
     transform="translate(-31.16 -20.14)"
     fill="#cc818c"
     id="path151" />
  <path
     d="M741.45,730.15v.74h0l0-.76Z"
     transform="translate(-31.16 -20.14)"
     opacity="0.1"
     id="path153" />
  <path
     d="M716.48,767.15l14.2,2.94,10.53-9.3v-2.23a3,3,0,0,1-1.51,2.4l-.15.09a28.3,28.3,0,0,1-15.94,3.15l-5.54-.47a5.19,5.19,0,0,0-1.47.36l0,.74Z"
     transform="translate(-31.16 -20.14)"
     opacity="0.1"
     id="path155" />
  <path
     d="M739.55,761.78l.15-.08a3,3,0,0,0,1.53-2.6l.23-28.21s3.06-2.19,2.32,7.73-1.22,24.74-1.22,24.74-.12,16.16-15.55,16.16c0,0-15.43,2.94-15.31-5.88s6.37-9.18,6.37-9.18l5.54.48A28.23,28.23,0,0,0,739.55,761.78Z"
     transform="translate(-31.16 -20.14)"
     fill="#b07473"
     id="path157" />
  <path
     d="M642.52,761.15c.36,6.37,19.1,2.69,19.1,2.69l12.61-24.48s10.53-8.09,5.26-15.19a11.33,11.33,0,0,1-.77-1.21s0,0-.05-.06v0c-.11-.18-.21-.37-.31-.57h0c-3.78-7.5-1.92-19.8-1.92-19.8s4.89-35.76,6.61-45.19c1.21-6.66.71-28.51.31-40.73-.16-5.08-.31-8.49-.31-8.49l-31.11-8.33s0,3.88,0,9.28c-.07,7.67-.31,18.4-1.1,25.38-1.34,11.87,3.43,51.18,3.43,51.18l1.65,35.77a33.13,33.13,0,0,1-4,17.41c-3.9,7.14-9,17.2-9.35,21.65A4.38,4.38,0,0,0,642.52,761.15Z"
     transform="translate(-31.16 -20.14)"
     fill="#cc818c"
     id="path159" />
  <path
     d="M642.52,761.15c.36,6.37,19.1,2.69,19.1,2.69l12.61-24.48s10.53-8.09,5.26-15.19a11.33,11.33,0,0,1-.77-1.21c-.17,3.71-4.24,13-4.24,13s-10.41,20.83-13.72,25.6-17.69-.89-18.23-1.09A4.38,4.38,0,0,0,642.52,761.15Z"
     transform="translate(-31.16 -20.14)"
     opacity="0.1"
     id="path161" />
  <path
     d="M678.36,722.3s6.16-1.43,4.32,14.61v0a10.33,10.33,0,0,1-4.87,9.17c-4.41,2.77-11.21,8.73-14.65,20.32h0a11.08,11.08,0,0,1-8.55,10.8c-5.56,1.3-12.49,2.44-16.5,1.32-7.47-2.08-4.16-7.22-4.16-7.22l8.57-10.17s14.94,5.88,18.24,1.1,13.72-25.59,13.72-25.59S680.19,723.65,678.36,722.3Z"
     transform="translate(-31.16 -20.14)"
     fill="#b07473"
     id="path163" />
  <path
     d="M728.48,593.52l-.66,24.1c8.35-.81,14.33-1.94,15.35-3.53,2.21-3.42,10.23-4.86,17.05-5.45-.21-4.51-.39-7.53-.39-7.53Z"
     transform="translate(-31.16 -20.14)"
     opacity="0.1"
     id="path165" />
  <path
     d="M651.94,612a11.44,11.44,0,0,1,3.43-4.14c3.3-1.83,2.94,11.76,2.94,11.76s11,.1,25.05-.08c-.16-5.08-.31-8.5-.31-8.5l-31.11-8.32S652,606.58,651.94,612Z"
     transform="translate(-31.16 -20.14)"
     opacity="0.1"
     id="path167" />
  <path
     d="M648.39,615.22s3.68-10,7-11.78,2.94,11.75,2.94,11.75,80.82.74,84.86-5.51,27.55-5.88,27.55-5.88-.73-77.88-2.57-107.26-4.77-56.21-12.12-64.29c-4.75-5.23-11.51-22.15-15.69-33.43-2.27-6.16-3.78-10.65-3.78-10.65l-77.14,4.4-.63,6.25-8.19,81.92s-1.1,90.37-4.41,110.94S648.39,615.22,648.39,615.22Z"
     transform="translate(-31.16 -20.14)"
     fill="#444053"
     id="path169" />
  <g
     opacity="0.1"
     id="g175">
    <path
       d="M736.91,609.68c4-6.24,27.55-5.88,27.55-5.88s-.73-77.88-2.57-107.26-4.77-56.21-12.12-64.29C745,427,738.26,410.1,734.08,398.82c-1.91-5.18-3.28-9.17-3.66-10.31l6-.34s1.51,4.49,3.79,10.65c4.18,11.28,10.93,28.2,15.68,33.43,7.35,8.08,10.29,34.9,12.12,64.29s2.58,107.26,2.58,107.26-23.51-.36-27.56,5.88c-3.45,5.33-62.92,5.58-80.18,5.53C685,615.16,733.79,614.5,736.91,609.68Z"
       transform="translate(-31.16 -20.14)"
       id="path171" />
    <path
       d="M649.11,603.44c1.49-.83,2.23,1.47,2.6,4.26a57.68,57.68,0,0,0-3.47,7.52s-2.13-1.15-3-7C646.46,606.13,647.81,604.16,649.11,603.44Z"
       transform="translate(-31.16 -20.14)"
       id="path173" />
  </g>
  <path
     d="M672.23,199.74c-5.34,7.28.06,17.63-5.67,24.71-1.89,2.34-4.8,4-6.77,6.3-3.65,4.26-3.51,10.05-1.72,15.05s5,9.56,7.28,14.44c1,2.11,1.74,4.48.74,6.58-.7,1.46-2.15,2.57-3.28,3.83-3.68,4.11-3.78,9.82-1.8,14.66s5.76,9,9.49,13.1c1.47,1.61,3.33,3.39,5.78,3.34a8,8,0,0,0,3.63-1.19,37,37,0,0,0,16.84-48.29c-3.1-7.43-8.27-14.55-8.32-22.4,0-6.23,3.2-12.18,3.77-18.38.69-7.54-3.77-19.51-12.87-22.8C679.93,193.53,674.94,196,672.23,199.74Z"
     transform="translate(-31.16 -20.14)"
     fill="#585268"
     id="path177" />
  <path
     d="M672.23,199.74c-5.34,7.28.06,17.63-5.67,24.71-1.89,2.34-4.8,4-6.77,6.3-3.65,4.26-3.51,10.05-1.72,15.05s5,9.56,7.28,14.44c1,2.11,1.74,4.48.74,6.58-.7,1.46-2.15,2.57-3.28,3.83-3.68,4.11-3.78,9.82-1.8,14.66s5.76,9,9.49,13.1c1.47,1.61,3.33,3.39,5.78,3.34a8,8,0,0,0,3.63-1.19,37,37,0,0,0,16.84-48.29c-3.1-7.43-8.27-14.55-8.32-22.4,0-6.23,3.2-12.18,3.77-18.38.69-7.54-3.77-19.51-12.87-22.8C679.93,193.53,674.94,196,672.23,199.74Z"
     transform="translate(-31.16 -20.14)"
     opacity="0.1"
     id="path179" />
  <path
     d="M731.45,464.55c-10.69.56-20.75,5.16-30.11,10.36S682.92,486,672.85,489.69"
     transform="translate(-31.16 -20.14)"
     opacity="0.1"
     id="path181" />
  <path
     d="M724.81,489.74a44.07,44.07,0,0,0-27.75,13.5c-2.6,2.75-4.84,5.83-7.55,8.47a33.54,33.54,0,0,1-14.88,8.43"
     transform="translate(-31.16 -20.14)"
     opacity="0.1"
     id="path183" />
  <path
     d="M727,508.91a48.52,48.52,0,0,0-22.32,13.46c-1.64,1.77-3.13,3.66-4.77,5.43-8.85,9.5-21.35,14.54-33.42,19.31"
     transform="translate(-31.16 -20.14)"
     opacity="0.1"
     id="path185" />
  <path
     d="M726.09,243.06a219.46,219.46,0,0,0,2.2,25.52c1,6,2.4,11.4,4.41,13.79,5.88,7-28.65,16.35-28.65,16.35l-20.39-15.8s16.16-14.88,8.63-29.39S726.09,243.06,726.09,243.06Z"
     transform="translate(-31.16 -20.14)"
     fill="#cc818c"
     id="path187" />
  <path
     d="M658.79,398.82h81.55c-2.27-6.16-3.78-10.65-3.78-10.65l-77.14,4.4Z"
     transform="translate(-31.16 -20.14)"
     opacity="0.1"
     id="path189" />
  <path
     d="M653.54,397.35h87.19c-2.45-8.77,0-16.88,3.49-23.12a51.1,51.1,0,0,1,9.13-11.84l.6-.55,30.44-6.74,1.64-.36s.25-55.35-19.35-62.95-31.35-17.87-31.35-17.87l-26.93,8.32-19.84-10c-6.37,6.85-23.27,4.16-23.27,4.16-27.67,3.18-27.67,24-27.67,24s16.16,37.71,17.39,37.71S653.54,397.35,653.54,397.35Z"
     transform="translate(-31.16 -20.14)"
     fill="#007bff"
     id="path191"
     style="fill:#00ff00" />
  <path
     d="M683.64,362.16s-17.78-3.94-23.83-10.83"
     transform="translate(-31.16 -20.14)"
     opacity="0.1"
     id="path193" />
  <path
     d="M773.29,341.51l-20.62,16.9a35.13,35.13,0,0,0,.68,4l.6-.55,30.44-6.74Z"
     transform="translate(-31.16 -20.14)"
     opacity="0.1"
     id="path195" />
  <path
     d="M717.46,391.47s4.51,2.54,11.42,5.88h11.85c-2.45-8.77,0-16.88,3.49-23.12l-20.89-6.76C730.44,374.08,717.46,391.47,717.46,391.47Z"
     transform="translate(-31.16 -20.14)"
     opacity="0.1"
     id="path197" />
  <path
     d="M649.86,293.76l-12.24,6.61-12,30.37s-12.49,33.3-11.27,42.12c0,0-4.4,20.82,3.43,24.49l20.4,9.24a1.9,1.9,0,0,0,2.45-2.62c-2.91-5.51-6.11-14.13-1-18.87l-5.88-12.24L655,338.08l7.1-12Z"
     transform="translate(-31.16 -20.14)"
     fill="#007bff"
     id="path199"
     style="fill:#00ff00" />
  <path
     d="M677.09,355.21c1.06,4.32,4.64,11,16.49,13.49l13,10.65,13.83,6.27,5.64,2.55,2.39-17.27-5.43-3-6.33-3.46s-14.28-25.87-36.89-15A5,5,0,0,0,677.09,355.21Z"
     transform="translate(-31.16 -20.14)"
     opacity="0.1"
     id="path201" />
  <path
     d="M677.83,353.74c1.06,4.33,4.63,11,16.48,13.49l13,10.65,13.84,6.27,5.63,2.55,2.39-17.27-5.43-3L717.46,363s-14.29-25.87-36.9-14.95A5,5,0,0,0,677.83,353.74Z"
     id="path203"
     fill="#cc818c"
     transform="translate(-31.16 -20.14)" />
  <circle
     cx="672.15"
     cy="213.73"
     r="31.59"
     opacity="0.1"
     id="circle205" />
  <circle
     cx="672.15"
     cy="213"
     r="31.59"
     fill="#cc818c"
     id="circle207" />
  <path
     d="M722.88,300.64l-9.5-18.46s13.9-5.62,14.91-12.13,13.32,7.63,10.66,12.32S722.88,300.64,722.88,300.64Z"
     transform="translate(-31.16 -20.14)"
     opacity="0.1"
     id="path209" />
  <path
     d="M722.88,299.17l-9.5-18.46s13.9-5.62,14.91-12.13,13.32,7.64,10.66,12.32S722.88,299.17,722.88,299.17Z"
     transform="translate(-31.16 -20.14)"
     fill="#007bff"
     id="path211" />
  <path
     d="M645.13,346.86l52.49,70.57s-19.35,10.53-46-8.32l-11.51-13.72L607.25,340Z"
     transform="translate(-31.16 -20.14)"
     fill="#f6f8fb"
     id="path213" />
  <path
     d="M634.8,385.23l4.78-.13s29.2-28.34,36.37-14-18.19,27.74-18.19,27.74L650.05,403,640,406l-6.43-8.63Z"
     transform="translate(-31.16 -20.14)"
     fill="#cc818c"
     id="path215" />
  <path
     d="M641.85,400.54c.44,1.63.86,3.43.12,4.94a2,2,0,0,1-.87.95,2.23,2.23,0,0,1-1,.14,10.05,10.05,0,0,1-6.59-3.26,30.1,30.1,0,0,1-4.27-6.18c-1.3-2.27-2.65-4.78-2.19-7.36.52-2.81,3-4.76,5.43-6.34,4.84-3.2,5,.53,6.06,4.65S640.74,396.38,641.85,400.54Z"
     transform="translate(-31.16 -20.14)"
     opacity="0.1"
     id="path217" />
  <path
     d="M641.12,400.54c.43,1.63.86,3.43.12,4.94a2,2,0,0,1-.87.95,2.25,2.25,0,0,1-1,.14,10,10,0,0,1-6.59-3.26,29.75,29.75,0,0,1-4.28-6.18c-1.3-2.27-2.65-4.78-2.18-7.36.51-2.81,3-4.76,5.42-6.34,4.85-3.2,5,.53,6.07,4.65S640,396.38,641.12,400.54Z"
     transform="translate(-31.16 -20.14)"
     fill="#007bff"
     id="path219" />
  <polygon
     points="623.85 317.94 626.29 313.81 624.16 321.48 623.85 317.94"
     opacity="0.1"
     id="polygon221" />
  <path
     d="M721.19,384.15l5.63,2.55,2.39-17.27-5.43-3C727.53,370.73,724.25,378.68,721.19,384.15Z"
     transform="translate(-31.16 -20.14)"
     opacity="0.1"
     id="path223" />
  <path
     d="M743.79,364.1s-18.18,1.11-25.9-3.85"
     transform="translate(-31.16 -20.14)"
     opacity="0.1"
     id="path225" />
  <g
     opacity="0.1"
     id="g233">
    <path
       d="M741.53,375.7a51.18,51.18,0,0,1,9.13-11.85,24.37,24.37,0,0,1,2.69-1.46l28.34-5.82,1.64-.36s.25-55.35-19.34-62.95a117.72,117.72,0,0,1-30.56-17.21l2.15-.66s11.75,10.28,31.35,17.87,19.34,62.95,19.34,62.95h-2.94l-29,5.55s-1.25,1.21-1.63,1.56a56.2,56.2,0,0,0-9.27,12.26A30.74,30.74,0,0,0,741,398.82H738C735.58,390.05,738.08,381.94,741.53,375.7Z"
       transform="translate(-31.16 -20.14)"
       id="path227" />
    <path
       d="M664.13,278c.47-.07.92-.14,1.41-.19a50.71,50.71,0,0,0,6,.49A54.54,54.54,0,0,1,664.13,278Z"
       transform="translate(-31.16 -20.14)"
       id="path229" />
    <path
       d="M705.7,283.71l-17.94-9.08a9.48,9.48,0,0,0,1-.95l18.72,9.47Z"
       transform="translate(-31.16 -20.14)"
       id="path231" />
  </g>
  <path
     d="M774,340l12,14.7,2.45,39.92s3.18,20.32-20.08,15.42S718.19,390,718.19,390s13-17.39,5.88-24l33.31,10.78s5.63-1.23,1.22-6.12-5.19-13.72-5.19-13.72Z"
     transform="translate(-31.16 -20.14)"
     fill="#007bff"
     id="path235"
     style="fill:#00ff00" />
  <path
     d="M779.42,382.17l6.61,7.59A9.53,9.53,0,0,1,779.42,382.17Z"
     transform="translate(-31.16 -20.14)"
     opacity="0.1"
     id="path237" />
  <polygon
     points="736.99 360.8 747.28 374.02 742.14 375.25 736.99 360.8"
     opacity="0.1"
     id="polygon239" />
  <path
     d="M665.58,218.64c-1.13-2.77-.26-6,1.1-8.61s3.23-5.08,4.25-7.89c1.51-4.18,1.05-8.91,2.7-13,2.91-7.25,11.18-10.49,18.59-13,2.19-.73,4.52-1.46,6.76-.92,3,.71,4.95,3.43,7.4,5.26,10.06,7.5,26.42-.76,36.15,7.18,3.72,3,5.53,7.91,6.09,12.68s0,9.61-.06,14.42c-.16,8.42,1.42,17.63,7.72,23.21,1.9,1.68,4.14,2.94,6,4.68s3.32,4.17,3,6.69a23.19,23.19,0,0,1-1,3.4c-1.25,4.39.62,9,2.9,13,6.8,11.77,18.79,21.47,32.38,21.74-.91,6.86-8,10.84-14.35,13.65-8,3.59-16.52,7.11-25.33,6.66s-18-6.09-19.54-14.77c-.53-3-.46-6.61-3-8.17-1.56-.95-3.58-.71-5.26-1.42-2.43-1-3.63-3.73-4.43-6.24a56.16,56.16,0,0,1-2.61-16c-.11-6.44.74-13.47-2.91-18.77-3.38-4.91-9.38-7.4-13.28-11.91-3.6-4.18-7.51-9.22-13.41-10C687.28,219.36,670.4,230.45,665.58,218.64Z"
     transform="translate(-31.16 -20.14)"
     opacity="0.1"
     id="path241" />
  <path
     d="M665.58,217.17c-1.13-2.77-.26-6,1.1-8.61s3.23-5.08,4.25-7.89c1.51-4.18,1.05-8.91,2.7-13,2.91-7.26,11.18-10.5,18.59-13,2.19-.73,4.52-1.46,6.76-.92,3,.71,4.95,3.43,7.4,5.26,10.06,7.5,26.42-.76,36.15,7.18,3.72,3,5.53,7.91,6.09,12.69s0,9.6-.06,14.41c-.16,8.42,1.42,17.63,7.72,23.21,1.9,1.68,4.14,2.94,6,4.68s3.32,4.17,3,6.69a23.19,23.19,0,0,1-1,3.4c-1.25,4.39.62,9,2.9,13C774,276,785.94,285.73,799.53,286c-.91,6.86-8,10.84-14.35,13.66-8,3.58-16.52,7.1-25.33,6.65s-18-6.09-19.54-14.77c-.53-3-.46-6.61-3-8.17-1.56-.95-3.58-.71-5.26-1.42-2.43-1-3.63-3.73-4.43-6.24a56.1,56.1,0,0,1-2.61-16c-.11-6.44.74-13.47-2.91-18.77-3.38-4.91-9.38-7.4-13.28-11.91-3.6-4.18-7.51-9.22-13.41-10C687.28,217.89,670.4,229,665.58,217.17Z"
     transform="translate(-31.16 -20.14)"
     fill="#585268"
     id="path243" />
  <path
     d="M688,298.35l18.11-14.7s-12.4-6.72-13.88-12.45-11.4,2.72-10.39,7.86S688,298.35,688,298.35Z"
     transform="translate(-31.16 -20.14)"
     opacity="0.1"
     id="path245" />
  <path
     d="M688.71,296.14l18.11-14.69S694.42,274.73,693,269s-11.4,2.72-10.39,7.86S688.71,296.14,688.71,296.14Z"
     transform="translate(-31.16 -20.14)"
     fill="#007bff"
     id="path247" />
  <circle
     cx="676.37"
     cy="273.61"
     r="1.44"
     opacity="0.1"
     id="circle249" />
  <circle
     cx="676.37"
     cy="281.61"
     r="1.44"
     opacity="0.1"
     id="circle251" />
  <circle
     cx="676.37"
     cy="289.6"
     r="1.44"
     opacity="0.1"
     id="circle253" />
  <g
     id="g259"
     opacity="0.1">
    <path
       d="M672.89,196.75c1.43-3.93,1.12-8.34,2.46-12.3a13.44,13.44,0,0,0-1.53,2.82c-1.66,4.13-1.19,8.86-2.71,13l-.1.24A22.85,22.85,0,0,0,672.89,196.75Z"
       transform="translate(-31.16 -20.14)"
       id="path255" />
    <path
       d="M787.14,295.74c-8,3.58-16.52,7.1-25.33,6.65s-18-6.09-19.54-14.76c-.53-3-.46-6.62-3-8.18-1.56-.95-3.58-.71-5.26-1.42-2.43-1-3.63-3.73-4.43-6.24a56.1,56.1,0,0,1-2.61-16c-.11-6.43.75-13.46-2.9-18.77-3.39-4.91-9.39-7.39-13.29-11.91-3.6-4.17-7.51-9.22-13.41-10-8.09-1.1-25,10-29.78-1.82a9.3,9.3,0,0,1,.31-6.83c-.35.59-.69,1.18-1,1.78-1.36,2.66-2.22,5.85-1.09,8.62,4.81,11.8,21.69.71,29.78,1.82,5.9.8,9.81,5.85,13.41,10,3.9,4.52,9.9,7,13.28,11.92,3.66,5.3,2.8,12.33,2.91,18.76a56.1,56.1,0,0,0,2.61,16c.8,2.52,2,5.22,4.43,6.24,1.68.71,3.7.48,5.26,1.42,2.58,1.56,2.51,5.21,3,8.18,1.56,8.67,10.74,14.31,19.54,14.76s17.28-3.06,25.33-6.65c5.8-2.58,12.26-6.15,14-12C796.58,291.11,791.66,293.73,787.14,295.74Z"
       transform="translate(-31.16 -20.14)"
       id="path257" />
  </g>
  <path
     d="M963.87,352.18C942.7,340,934.7,337,934.66,337l-.44-.31a17.61,17.61,0,0,1-5.33-6.74,14.07,14.07,0,0,1,0-1.45.61.61,0,0,0,0,.14c.33-6.45,4.92-12.32,9.27-17.44l11.13-13.09a12.9,12.9,0,0,0,2.87-4.54,10.47,10.47,0,0,0,.3-2.79c0-.38,0-.76,0-1.14-.06-3.25-.15-6.51-.27-9.76-.1-2.84-.83-6.42-3.67-7-1.48-.3-3.44.23-4.22-1a2.43,2.43,0,0,1-.19-1.69.58.58,0,0,0,0,.14l0-.16a37.67,37.67,0,0,0,1.05-6.69,9.12,9.12,0,0,0-.46-3.39c-1.64-4.71-7.31-6.65-12.32-7.54s-10.63-1.65-13.77-5.57a40.73,40.73,0,0,0-2.74-3.77,10.81,10.81,0,0,0-5.12-2.53,29,29,0,0,0-18.63,1.62c-2.42,1.08-4.85,2.54-7.51,2.38s-5.12-2.08-7.84-2.54c-4.4-.75-8.61,2.48-10.78,6.31a15.43,15.43,0,0,0-2,7.44v.44h0a10.88,10.88,0,0,0,2.86,7.6c1.9,2,4.72,3.32,5.51,5.91.32,1.05.24,2.19.53,3.26a2.91,2.91,0,0,0,.12.39l-.14.19a33,33,0,0,0-7,20.34,33.76,33.76,0,0,0,23.72,32c0,.33,0,.66,0,1,0,4-1.15,8.17-4.6,11.2L855,350.2s-18.08-2.15-24.6,24.27a45.05,45.05,0,0,0-1.12,13.4c.24,4-.31,11-5,20.07-7.41,14.52-5.72,47.85,9.44,51.15,14.31,3.12,19.91,1.82,20.5,1.67l0,.58c-.24,6.26-2.51,60.2-10.76,66.72-2.28,1.81-1.86,3,0,3.85,0,0,0,.35-.05,1-.25,4-1.52,19-7,27.52-6.41,9.9-5.74,67-5.74,67l-4.37,33.66s2.69,20.79,0,24.42c-2.41,3.23-5.61,80.14-6.28,96.82h-.28a8.12,8.12,0,0,0-6.48,4c-3.54,5.75-15.94,16.38-15.94,16.38-2.69,3.82-12.64,7.48-17.9,9.2a11.12,11.12,0,0,0-2,.88,10.67,10.67,0,0,0-4.52,4.76,5.11,5.11,0,0,0-.48,4c1.34,3.29,29.31,5.61,36.39,2.3,5.56-2.59,27.6-6,36.75-7.34a7.54,7.54,0,0,0,6.54-6.54,4.31,4.31,0,0,0-.84-3.27,0,0,0,0,0,0,0c-1.75-2.17-2.64-8.1-3-12a8.11,8.11,0,0,0,2.06-1.22,87.85,87.85,0,0,1,5-35.31c6.74-17.82,8.76-50.82,7.08-72.27,0,0,20.55-88.44,36.73-96.69h0c.25.32,8.1,10.39,9.1,41.58,1,31.68,12.46,52.47,12.46,52.47s-5.06,53.79,0,73.92l-6.61,31.75c-.49-.41-.8-.73-.8-.73s.2.88.47,2.29l-.14.68.29.06c.75,4,1.86,10.89,1.4,15-.26,2.31-.91,5.48-1.35,8.59-.7,4.89-.89,9.63,1.68,10.67,4.22,1.7,29,4,33.2-1.44a7.79,7.79,0,0,0,1.22-8.15,8.25,8.25,0,0,0-1.22-2.08s-6.58-10.75-4.72-18.33a5.58,5.58,0,0,0-.79-4.35c.29-3.72,1.79-20.94,5.67-35.56,4.22-15.88,13.11-50.7,6.57-73.59h0q-.37-1.35-.84-2.64a98.84,98.84,0,0,1-3.71-38.61,78.69,78.69,0,0,1,0-33.66c4.05-18.48,6.88-36.63,6.88-36.63s2.23-24.42.28-39.39c0-.32-.09-.64-.13-1l1.06-.24s-5.73-25.41-7.75-41.58c-.48-3.82-1.1-8.65-1.78-13.81a35.25,35.25,0,0,0,5.49-1.37c18.19-6.27,23.92-63,23.92-63v-18S985.1,364.39,963.87,352.18ZM828.31,790.42c-.56-.28-.89-.47-.89-.47h0Z"
     transform="translate(-31.16 -20.14)"
     fill="url(#422858ff-741c-491e-b83f-4f975ae951a6)"
     id="path261" />
  <path
     d="M952.89,679.71c7.89,22.69-1.32,59.52-5.6,76s-5.59,36.18-5.59,36.18c-16.77,2.63-28.94-.66-28.94-.66l6.91-33.87c-4.94-20.06,0-73.67,0-73.67s-11.18-20.72-12.17-52.29c-1-31.07-8.63-41.12-8.87-41.43h0c-15.78,8.22-35.84,96.36-35.84,96.36,1.64,21.37-.34,54.26-6.91,72a89,89,0,0,0-4.93,35.18c-2.3,2-5.5,2.28-9,1.72-9.39-1.52-20.65-9.61-20.65-9.61s3.61-96,6.25-99.64,0-24.34,0-24.34l4.27-33.54s-.66-56.9,5.59-66.76c5.4-8.52,6.64-23.5,6.88-27.43,0-.62,0-1,0-1l9.52-11.4s92.08-6.91,99,0c1.69,1.69,2.74,5.55,3.36,10.4,1.9,14.92-.28,39.25-.28,39.25s-2.76,18.09-6.71,36.5a80.12,80.12,0,0,0,0,33.55A100.43,100.43,0,0,0,952.89,679.71Z"
     transform="translate(-31.16 -20.14)"
     fill="#65617d"
     id="path263" />
  <path
     d="M947.13,823.91c-4.11,5.43-28.28,3.13-32.4,1.44-2.51-1-2.32-5.77-1.64-10.64.43-3.09,1.06-6.25,1.32-8.55.65-5.92-2-17.93-2-17.93s5.42,5.76,6.73,0c.58-2.52,2.6-3.81,4.7-4.46a12.28,12.28,0,0,1,8.54.53c4.27,1.86,11.39,5.81,10.12,11.15-1.81,7.55,4.6,18.27,4.6,18.27a8.32,8.32,0,0,1,1.2,2.06A7.89,7.89,0,0,1,947.13,823.91Z"
     transform="translate(-31.16 -20.14)"
     fill="#a27772"
     id="path265" />
  <path
     d="M947.13,823.91c-4.11,5.43-28.28,3.13-32.4,1.44-2.51-1-2.32-5.77-1.64-10.64,2.6,1.22,7,2.23,14.37,1.55a40.54,40.54,0,0,1,5.17-.16,120.23,120.23,0,0,0,15.7-.32A7.89,7.89,0,0,1,947.13,823.91Z"
     transform="translate(-31.16 -20.14)"
     opacity="0.1"
     id="path267" />
  <path
     d="M862.78,686.29c1.64,21.37-.34,54.26-6.91,72a89,89,0,0,0-4.93,35.18c-2.3,2-5.5,2.28-9,1.72,2-13.87,10.44-73.63,15.85-120.85,6.17-53.77,35-90.76,35-90.76l5.75,6.33C882.84,598.15,862.78,686.29,862.78,686.29Z"
     transform="translate(-31.16 -20.14)"
     opacity="0.1"
     id="path269" />
  <path
     d="M937.26,340.65l-4,19.73-19.67,33.05-24.25-10.36s-33-34.53-12.25-39.46a18.36,18.36,0,0,0,6.88-3.06c4.07-3.07,5.35-7.53,5.37-11.9A36.48,36.48,0,0,0,886,314.51l42.42-13.32a68.09,68.09,0,0,0-3,17.18c-.33,11.56,4,17.25,7.49,20A12.74,12.74,0,0,0,937.26,340.65Z"
     transform="translate(-31.16 -20.14)"
     fill="#fbbebe"
     id="path271" />
  <path
     d="M928.38,301.19a68.09,68.09,0,0,0-3,17.18,32.29,32.29,0,0,1-2.47,2.63,33.56,33.56,0,0,1-33.54,7.65A36.48,36.48,0,0,0,886,314.51Z"
     transform="translate(-31.16 -20.14)"
     opacity="0.1"
     id="path273" />
  <path
     d="M933.25,295.76a33.55,33.55,0,1,1-33.55-33.54A33.39,33.39,0,0,1,933.25,295.76Z"
     transform="translate(-31.16 -20.14)"
     fill="#fbbebe"
     id="path275" />
  <path
     d="M937.26,340.65l-4,19.73-19.67,33.05-24.25-10.36s-33-34.53-12.25-39.46a18.36,18.36,0,0,0,6.88-3.06c-3.74,10.28,11.7,31.67,11.7,31.67,1.8,2.65,5.92,1,5.92,1,9.95-1.51,28.26-30.12,31.25-34.88A12.74,12.74,0,0,0,937.26,340.65Z"
     transform="translate(-31.16 -20.14)"
     opacity="0.1"
     id="path277" />
  <path
     d="M956.25,531.93c-5.84,1.33-38.15,8.48-50.4,6.69-13.48-2-39.69-3.28-39.69-3.28s-16.69.9-21.83-1.45c0-.62,0-1,0-1l9.52-11.4s92.08-6.91,99,0C954.58,523.22,955.63,527.08,956.25,531.93Z"
     transform="translate(-31.16 -20.14)"
     opacity="0.1"
     id="path279" />
  <path
     d="M895.66,373.21s-17.35-24-10.81-33.4l-29.31,12s-17.64-2.14-24,24.19a45.81,45.81,0,0,0-1.09,13.36c.24,4-.3,11-4.83,20-7.23,14.47-5.59,47.69,9.21,51S854.88,462,854.88,462s-2,60.18-10.52,67.09,21.8,5.26,21.8,5.26,26.21,1.32,39.7,3.29,51.3-6.91,51.3-6.91-5.59-25.32-7.57-41.43S943,438.87,943,438.87l33.54-45.44s5.92-27.46-14.8-39.63-28.51-15.15-28.51-15.15-20.82,33.9-31.67,35.54C901.58,374.19,897.46,375.85,895.66,373.21Z"
     id="path281"
     fill="#007bff"
     transform="translate(-31.16 -20.14)" />
  <path
     d="M857.18,382.74s-.32,10.86,1.65,15.13,9.21,28,9.21,28H851.59s8.88-9.54,8.23-14.15S857.18,382.74,857.18,382.74Z"
     transform="translate(-31.16 -20.14)"
     opacity="0.1"
     id="path283" />
  <path
     d="M905.86,464.63s-36.32-8.88-39.7-16.44-12.71-24.49-12.71-24.49l3.83-5.16,17.66,13.86s21,16.77,30.92,18.42S905.86,464.63,905.86,464.63Z"
     transform="translate(-31.16 -20.14)"
     fill="#fbbebe"
     id="path285" />
  <path
     d="M905.86,464.63s-36.32-8.88-39.7-16.44-12.71-24.49-12.71-24.49l3.83-5.16,17.66,13.86s21,16.77,30.92,18.42S905.86,464.63,905.86,464.63Z"
     transform="translate(-31.16 -20.14)"
     opacity="0.05"
     id="path287" />
  <path
     d="M937.26,421.88v19.7H934.1a92.07,92.07,0,0,0-44.72,11.58l-5.94,3.29-1.59.89-10.2-23,9.54-8.55.49,0c2.33.23,12.42,1.07,16.7-.37,4.06-1.38,9.1-5.75,21.06-2.7,5.89,1.51,10.93,8.11,16.64,6.05Z"
     transform="translate(-31.16 -20.14)"
     fill="#fbbebe"
     id="path289" />
  <path
     d="M969,386l6.57,7.4v17.93s-5.59,56.56-23.34,62.81-49.46-3.62-49.46-3.62-8.19-21.7-4.36-23,33.85-9.24,33.85-9.24-.42-33.18,6.15-43.05c0,0-4.27-30.91,10.53-31.57S969,386,969,386Z"
     transform="translate(-31.16 -20.14)"
     opacity="0.1"
     id="path291" />
  <path
     d="M970,386l6.58,7.4v17.93s-5.59,56.56-23.35,62.81-49.46-3.62-49.46-3.62-8.19-21.7-4.35-23,33.85-9.24,33.85-9.24-.43-33.18,6.15-43.05c0,0-4.28-30.91,10.52-31.57S970,386,970,386Z"
     transform="translate(-31.16 -20.14)"
     fill="#007bff"
     id="path293" />
  <path
     d="M924.05,310a13.22,13.22,0,0,0-.75-6.41c-.93-2-3.1-3.51-5.22-3-2.81.66-4,4.32-6.78,5.2-2.33.74-4.87-.91-6-3.08s-1.14-4.72-1.14-7.16c0-2.74,0-5.49,0-8.24,0-3-.1-6.22-1.94-8.57-2.29-2.92-7.68-4.2-11.28-4.08a9.57,9.57,0,0,0-6.44,2.59c-1.92,1.64-4.15,2.84-6.77,2.41a5.83,5.83,0,0,1-4.72-4.08l0-.1A33.54,33.54,0,1,1,922.87,320,90.43,90.43,0,0,0,924.05,310Z"
     transform="translate(-31.16 -20.14)"
     opacity="0.1"
     id="path295" />
  <path
     d="M877.73,278.69A5.88,5.88,0,0,1,873,274.6c-.27-1.06-.2-2.19-.51-3.24-.77-2.59-3.53-3.93-5.38-5.9-3.7-3.93-3.46-10.39-.84-15.12,2.12-3.81,6.22-7,10.52-6.28,2.66.46,5,2.35,7.66,2.53s5-1.29,7.33-2.37A27.62,27.62,0,0,1,910,242.6a10.5,10.5,0,0,1,5,2.53,43.75,43.75,0,0,1,2.67,3.75c3.06,3.9,8.55,4.67,13.44,5.55s10.42,2.82,12,7.52c1.07,3.12,0,6.5-.58,9.74a2.94,2.94,0,0,0,.13,2c.77,1.26,2.68.73,4.12,1,2.77.59,3.48,4.16,3.59,7q.17,4.86.26,9.73a12.39,12.39,0,0,1-.29,3.6,12.71,12.71,0,0,1-2.79,4.53l-10.86,13.05c-4.82,5.78-9.93,12.52-9,20-2.28,1-5-.95-5.74-3.34s-.15-5,.36-7.41A90.85,90.85,0,0,0,924.05,309a13.18,13.18,0,0,0-.75-6.4c-.93-2-3.1-3.51-5.22-3-2.82.66-4,4.32-6.78,5.2-2.33.74-4.87-.91-6-3.08s-1.14-4.71-1.14-7.15l0-8.25c0-3-.1-6.22-1.94-8.57-2.29-2.92-7.68-4.2-11.28-4.08a9.57,9.57,0,0,0-6.43,2.59C882.58,277.91,880.35,279.12,877.73,278.69Z"
     transform="translate(-31.16 -20.14)"
     fill="#7c5c5c"
     id="path297" />
  <path
     d="M885.3,381.92l10.3,42.31S903.72,424.18,885.3,381.92Z"
     transform="translate(-31.16 -20.14)"
     opacity="0.1"
     id="path299" />
  <path
     d="M920.49,374.85s-13.48,22.08-8.22,44.92l2.51.18S910.3,409.38,920.49,374.85Z"
     transform="translate(-31.16 -20.14)"
     opacity="0.1"
     id="path301" />
  <path
     d="M929,499.82s16.56-5.48,17.76,7.23C946.8,507.05,943.68,498.34,929,499.82Z"
     transform="translate(-31.16 -20.14)"
     opacity="0.1"
     id="path303" />
  <path
     d="M881.19,426.81s-3.29,23,2.63,32.23c0,0-12,4.93-28.94,3.95l-2-36.18Z"
     transform="translate(-31.16 -20.14)"
     opacity="0.1"
     id="path305" />
  <path
     d="M883.44,456.45l-1.59.89-10.2-23,9.54-8.55h.49v0C881.53,426.93,878.87,446.7,883.44,456.45Z"
     transform="translate(-31.16 -20.14)"
     opacity="0.1"
     id="path307" />
  <path
     d="M881.19,425.83s-3.29,23,2.63,32.22c0,0-12,4.94-28.94,3.95l-11.51-36.17Z"
     transform="translate(-31.16 -20.14)"
     fill="#007bff"
     id="path309" />
  <path
     d="M852.75,809.91a7.45,7.45,0,0,1-6.39,6.52c-8.93,1.33-30.44,4.73-35.87,7.32-6.91,3.29-34.2,1-35.52-2.3a5.22,5.22,0,0,1,.47-4,10.54,10.54,0,0,1,4.41-4.74,11.7,11.7,0,0,1,2-.88c5.14-1.71,14.85-5.35,17.47-9.17,0,0,12.11-10.59,15.56-16.31a7.9,7.9,0,0,1,6.32-3.94c2.88-.13,6.09,1.32,7.41,7.63,0,0,15.77,9,20,1.11,0,0,.66,12.12,3.28,15.44v0A4.4,4.4,0,0,1,852.75,809.91Z"
     transform="translate(-31.16 -20.14)"
     fill="#a27772"
     id="path311" />
  <path
     d="M852.75,809.91a7.45,7.45,0,0,1-6.39,6.52c-8.93,1.33-30.44,4.73-35.87,7.32-6.91,3.29-34.2,1-35.52-2.3a5.22,5.22,0,0,1,.47-4,10.54,10.54,0,0,1,4.41-4.74c4.45,3,14.33,5.84,36.06,2.45,20.73-3.24,31-6.41,36-8.57v0A4.4,4.4,0,0,1,852.75,809.91Z"
     transform="translate(-31.16 -20.14)"
     opacity="0.1"
     id="path313" />
  <g
     opacity="0.1"
     id="g323">
    <path
       d="M942.48,272.15l0-.16c.47-2.46,1.18-5,1-7.47a49.31,49.31,0,0,1-1,6A3.64,3.64,0,0,0,942.48,272.15Z"
       transform="translate(-31.16 -20.14)"
       id="path315" />
    <path
       d="M923.29,302.93a9.51,9.51,0,0,1,.81,3.76,11.34,11.34,0,0,0-.81-5.24c-.92-2-3.09-3.51-5.21-3-2.82.66-4,4.32-6.79,5.2-2.32.74-4.86-.91-6-3.08s-1.14-4.72-1.14-7.16c0-2.75,0-5.49,0-8.24,0-3-.1-6.22-1.94-8.57-2.3-2.93-7.68-4.2-11.28-4.09a9.58,9.58,0,0,0-6.44,2.6c-1.93,1.64-4.15,2.84-6.78,2.41a5.86,5.86,0,0,1-4.72-4.08c-.27-1.06-.2-2.2-.51-3.25-.77-2.58-3.53-3.93-5.38-5.89a10.77,10.77,0,0,1-2.77-7,11.21,11.21,0,0,0,2.77,8.43c1.85,2,4.61,3.31,5.38,5.89.31,1,.24,2.19.51,3.25a5.86,5.86,0,0,0,4.72,4.08c2.63.43,4.85-.77,6.78-2.41a9.58,9.58,0,0,1,6.44-2.6c3.6-.11,9,1.16,11.28,4.09,1.84,2.35,1.93,5.58,1.94,8.57,0,2.75,0,5.49,0,8.24,0,2.44,0,5,1.14,7.15s3.65,3.83,6,3.09c2.76-.88,4-4.54,6.79-5.2C920.2,299.42,922.37,301,923.29,302.93Z"
       transform="translate(-31.16 -20.14)"
       id="path317" />
    <path
       d="M950.32,293.88a12.64,12.64,0,0,1-2.8,4.52l-10.86,13.05c-4.57,5.49-9.4,11.85-9,18.86.33-6.43,4.81-12.28,9-17.38l10.86-13.05a12.64,12.64,0,0,0,2.8-4.52,12.48,12.48,0,0,0,.29-3.61A9.5,9.5,0,0,1,950.32,293.88Z"
       transform="translate(-31.16 -20.14)"
       id="path319" />
    <path
       d="M922,328.11a7.69,7.69,0,0,1-.33-1.76,8.87,8.87,0,0,0,.33,3.24c.74,2.38,3.45,4.35,5.74,3.33a14,14,0,0,1-.12-1.44C925.34,332.39,922.7,330.45,922,328.11Z"
       transform="translate(-31.16 -20.14)"
       id="path321" />
  </g>
  <path
     d="M812.69,789.36s3.44,6,15.9.72"
     transform="translate(-31.16 -20.14)"
     opacity="0.1"
     id="path325" />
  <path
     d="M918,790.82s10.74,12.65,24.28,4.15"
     transform="translate(-31.16 -20.14)"
     opacity="0.1"
     id="path327" />
  <path
     d="M949.26,641.23s-7.59,4.74-7.83,7.45,3.92-2,3.92-2Z"
     transform="translate(-31.16 -20.14)"
     opacity="0.1"
     id="path329" />
  <path
     d="M952.26,677.59a15.87,15.87,0,0,1-9.35,3.65c-5.68.25-5.2,7.65-1.49,5.43S952.26,677.59,952.26,677.59Z"
     transform="translate(-31.16 -20.14)"
     opacity="0.1"
     id="path331" />
  <path
     d="M953.7,682.34s-3.64,17.89-6.6,14.44"
     transform="translate(-31.16 -20.14)"
     opacity="0.1"
     id="path333" />
  <ellipse
     cx="192.6"
     cy="716.06"
     rx="26.93"
     ry="4.55"
     fill="#007bff"
     opacity="0.1"
     id="ellipse555" />
  <ellipse
     cx="86.51"
     cy="780.59"
     rx="26.93"
     ry="4.55"
     fill="#007bff"
     opacity="0.1"
     id="ellipse557" />
  <ellipse
     cx="58.47"
     cy="722.86"
     rx="40.21"
     ry="6.8"
     fill="#007bff"
     id="ellipse559" />
  <ellipse
     cx="1029.83"
     cy="754.12"
     rx="26.93"
     ry="4.55"
     fill="#007bff"
     opacity="0.1"
     id="ellipse563" />
  <path
     d="M1042.91,753.11s15.36-.47,20-3.77,23.62-7.23,24.77-1.94,23.09,26.29,5.74,26.43-40.29-2.7-44.91-5.52S1042.91,753.11,1042.91,753.11Z"
     transform="translate(-31.16 -20.14)"
     fill="#a8a8a8"
     id="path565" />
  <path
     d="M1093.72,772c-17.34.14-40.29-2.7-44.91-5.52-3.52-2.14-4.92-9.83-5.39-13.38l-.51,0s1,12.39,5.59,15.2,27.57,5.66,44.91,5.52c5,0,6.74-1.82,6.64-4.46C1099.36,771,1097.45,772,1093.72,772Z"
     transform="translate(-31.16 -20.14)"
     opacity="0.2"
     id="path567" />
  <rect
     style="opacity:1;vector-effect:none;fill:#ffffff;fill-opacity:1;fill-rule:evenodd;stroke-width:1.24721909;stroke-linecap:butt;stroke-linejoin:miter;stroke-miterlimit:4;stroke-dasharray:none;stroke-dashoffset:0;stroke-opacity:1"
     id="rect721"
     width="39.683693"
     height="21.368143"
     x="682.25427"
     y="296.50684" />
  <path
     style="fill:none;stroke:#000000;stroke-width:1px;stroke-linecap:butt;stroke-linejoin:miter;stroke-opacity:1"
     d="m 700.56982,296.50683 c 0.50877,2.03506 1.01754,4.07012 1.5263,6.10518"
     id="path725"
     inkscape:connector-curvature="0" />
  <rect
     style="opacity:1;vector-effect:none;fill:#6c5353;fill-opacity:1;fill-rule:evenodd;stroke-width:0.83665997;stroke-linecap:butt;stroke-linejoin:miter;stroke-miterlimit:4;stroke-dasharray:none;stroke-dashoffset:0;stroke-opacity:1"
     id="rect729"
     width="21.368143"
     height="1.5262959"
     x="695.99097"
     y="305.66458" />
  <g
     id="g750">
    <path
       d="m 693.28046,305.66461 a 4.1566796,4.9187241 0 0 1 -4.14968,4.91872 4.1566796,4.9187241 0 0 1 -4.16366,-4.90215 4.1566796,4.9187241 0 0 1 4.13566,-4.93523 4.1566796,4.9187241 0 0 1 4.17758,4.88552 l -4.15658,0.0331 z"
       sodipodi:end="6.2764483"
       sodipodi:start="0"
       sodipodi:ry="4.9187241"
       sodipodi:rx="4.1566796"
       sodipodi:cy="305.66461"
       sodipodi:cx="689.12378"
       sodipodi:type="arc"
       id="path727"
       style="opacity:0.89600004;fill:#000000;fill-opacity:1;stroke:#ff00d2;stroke-width:0.32038909;stroke-opacity:1" />
    <rect
       y="311.76981"
       x="695.99091"
       height="1.5262959"
       width="22.894438"
       id="rect731"
       style="opacity:1;vector-effect:none;fill:#6c5353;fill-opacity:1;fill-rule:evenodd;stroke-width:0.99999994;stroke-linecap:butt;stroke-linejoin:miter;stroke-miterlimit:4;stroke-dasharray:none;stroke-dashoffset:0;stroke-opacity:1" />
  </g>
</svg>
